<svg width="30" height="30" viewBox="0 0 30 30" fill="none" xmlns="http://www.w3.org/2000/svg">
<g clip-path="url(#clip0)">
<path d="M11.134 25.8535L11.133 25.8545C10.9415 26.0472 10.6788 26.1558 10.4046 26.1558C10.1304 26.1558 9.86778 26.0472 9.67628 25.8545L9.67527 25.8535L1.02673 17.2036L1.0267 17.2035C0.32425 16.5011 0.324727 15.3625 1.02637 14.6622L1.02675 14.6618L2.10957 13.5787C2.10959 13.5787 2.1096 13.5787 2.10962 13.5787C2.10963 13.5787 2.10965 13.5786 2.10967 13.5786C2.81227 12.8764 3.94938 12.8765 4.65158 13.5787L10.0511 18.9784L10.4046 19.332L10.7582 18.9784L25.3483 4.38802C25.3483 4.388 25.3483 4.38798 25.3484 4.38796C26.0511 3.6855 27.1894 3.686 27.89 4.38769L27.8903 4.38792L28.9732 5.47113L28.9732 5.47117C29.6757 6.17359 29.6753 7.31192 28.9735 8.01257L28.9732 8.01286L11.134 25.8535Z" fill="#F9C900" stroke="black"/>
</g>
<defs>
<clipPath id="clip0">
<rect width="30" height="30" fill="white"/>
</clipPath>
</defs>
</svg>
