<svg width="60" height="37" viewBox="0 0 60 37" fill="none" xmlns="http://www.w3.org/2000/svg">
<path d="M15.3715 35.1757H11.4389C10.7507 35.1757 10.1926 34.6178 10.1926 33.9294V31.3895H16.6177V33.9294C16.6177 34.6178 16.0597 35.1757 15.3715 35.1757Z" fill="#4E5660"/>
<path d="M44.6285 35.1757H48.5611C49.2493 35.1757 49.8074 34.6178 49.8074 33.9294V31.3895H43.3823V33.9294C43.3823 34.6178 43.9403 35.1757 44.6285 35.1757Z" fill="#4E5660"/>
<path d="M50.5294 21.2725H9.47064V8.51777C9.47064 4.29891 12.8906 0.878906 17.1095 0.878906H42.8904C47.1093 0.878906 50.5293 4.29891 50.5293 8.51777V21.2725H50.5294Z" fill="#8DAEE1"/>
<path d="M50.5294 8.5178C50.5294 7.56014 50.3516 6.64444 50.0298 5.79987C46.3362 6.92334 43.615 10.3957 43.5771 14.4631H32.1068C31.3483 14.4631 30.632 14.6471 30.0001 14.9728C29.3683 14.6471 28.6519 14.4631 27.8935 14.4631H16.4231C16.3853 10.3958 13.6641 6.92334 9.97046 5.79987C9.64866 6.64455 9.47089 7.56026 9.47089 8.5178V21.2725H50.5295V8.5178H50.5294Z" fill="#6A95D6"/>
<path d="M52.4906 7.9233C48.9163 7.98295 46.083 10.9738 46.083 14.5486V20.4079H13.9168V14.5486C13.9168 10.9738 11.0837 7.98295 7.50926 7.9233C3.85793 7.86224 0.878906 10.8039 0.878906 14.4413C0.878906 17.1201 2.49527 19.4206 4.80551 20.4231V26.542C4.80551 29.2193 6.97582 31.3896 9.65309 31.3896H50.3469C53.0242 31.3896 55.1945 29.2193 55.1945 26.542V20.4231C57.5047 19.4206 59.1211 17.1201 59.1211 14.4413C59.1211 10.8039 56.1421 7.86224 52.4906 7.9233Z" fill="#8DAEE1"/>
<path d="M19.5275 14.9302C21.6616 14.9302 23.3917 13.5524 23.3917 11.8529C23.3917 10.1534 21.6616 8.7757 19.5275 8.7757C17.3934 8.7757 15.6634 10.1534 15.6634 11.8529C15.6634 13.5524 17.3934 14.9302 19.5275 14.9302Z" fill="white"/>
<path d="M40.4725 14.9302C42.6066 14.9302 44.3366 13.5524 44.3366 11.8529C44.3366 10.1534 42.6066 8.7757 40.4725 8.7757C38.3384 8.7757 36.6083 10.1534 36.6083 11.8529C36.6083 13.5524 38.3384 14.9302 40.4725 14.9302Z" fill="white"/>
<path d="M52.4906 7.9233C48.9163 7.98295 46.083 10.9738 46.083 14.5486V20.4079H13.9168V14.5486C13.9168 10.9738 11.0837 7.98295 7.50926 7.9233C3.85793 7.86224 0.878906 10.8039 0.878906 14.4413C0.878906 17.1201 2.49527 19.4206 4.80551 20.4231V26.542C4.80551 29.2193 6.97582 31.3896 9.65309 31.3896H50.3469C53.0242 31.3896 55.1945 29.2193 55.1945 26.542V20.4231C57.5047 19.4206 59.1211 17.1201 59.1211 14.4413C59.1211 10.8039 56.1421 7.86224 52.4906 7.9233Z" fill="#8DAEE1"/>
<path d="M27.8932 25.5754H11.5165C10.3529 25.5754 9.40967 24.6322 9.40967 23.4688V20.517C9.40967 18.5578 10.998 16.9694 12.9573 16.9694H26.4522C28.4115 16.9694 29.9999 18.5578 29.9999 20.517V23.4688C30 24.6322 29.0567 25.5754 27.8932 25.5754Z" fill="#7ACDF9"/>
<path d="M48.4835 25.5754H32.1068C30.9432 25.5754 30 24.6322 30 23.4688V20.517C30 18.5578 31.5884 16.9694 33.5476 16.9694H47.0426C49.0018 16.9694 50.5902 18.5578 50.5902 20.517V23.4688C50.5902 24.6322 49.6471 25.5754 48.4835 25.5754Z" fill="#A2DDFD"/>
<path d="M22.6584 8.85281V7.34895C22.6584 6.86356 22.265 6.47004 21.7795 6.47004C21.294 6.47004 20.9006 6.86356 20.9006 7.34895V8.85281C20.9006 9.3382 21.294 9.73172 21.7795 9.73172C22.2649 9.73172 22.6584 9.33832 22.6584 8.85281ZM37.647 8.81098C37.647 8.33473 38.0345 7.94719 38.5109 7.94719C38.9871 7.94719 39.3746 8.33473 39.3746 8.81098C39.3746 9.29637 39.768 9.68989 40.2536 9.68989C40.7389 9.68989 41.1325 9.29637 41.1325 8.81098C41.1325 7.36547 39.9565 6.18938 38.5109 6.18938C37.0652 6.18938 35.8891 7.36547 35.8891 8.81098C35.8891 9.29637 36.2825 9.68989 36.768 9.68989C37.2536 9.68989 37.647 9.29637 37.647 8.81098ZM51.2966 7.16274C50.6556 3.1418 47.1746 0 42.8904 0H18.0575C17.572 0 17.1786 0.393516 17.1786 0.878906C17.1786 1.3643 17.572 1.75781 18.0575 1.75781H42.8904C46.3454 1.75781 49.1934 4.34684 49.5979 7.69676C47.0159 8.87426 45.2044 11.5153 45.2044 14.5486V16.0904H33.5477C32.0974 16.0904 30.8079 16.7914 30.0001 17.8725C29.1922 16.7916 27.9027 16.0904 26.4525 16.0904H14.7959V14.5486C14.7959 11.5157 12.9847 8.87496 10.4032 7.69723C10.69 5.37574 12.1871 3.31711 14.343 2.3482C14.7858 2.14922 14.9835 1.62902 14.7845 1.18617C14.5854 0.743438 14.0647 0.545977 13.6226 0.744844C11.0064 1.9207 9.1602 4.37039 8.7048 7.16309C4.24992 6.34688 0 9.76512 0 14.4413C0 17.1933 1.52332 19.6977 3.9266 20.9746V26.542C3.9266 29.5856 6.31359 32.0814 9.31383 32.2576V33.9295C9.31383 35.1014 10.2671 36.0546 11.4389 36.0546H15.3716C16.5435 36.0546 17.4968 35.1013 17.4968 33.9295V32.2685H42.5036V33.9295C42.5036 35.1014 43.4569 36.0546 44.6287 36.0546H48.5614C49.7332 36.0546 50.6865 35.1013 50.6865 33.9295V32.2582C51.4087 32.2165 52.1057 32.0415 52.7627 31.7354C53.2028 31.5305 53.3933 31.0077 53.1884 30.5677C52.9833 30.1276 52.4605 29.9371 52.0205 30.1422C51.4952 30.3867 50.9324 30.5108 50.3473 30.5108H9.65309C7.46473 30.5108 5.68441 28.7305 5.68441 26.5422V20.4233C5.68441 20.0732 5.47664 19.7565 5.15531 19.6171C3.09141 18.7212 1.75781 16.6896 1.75781 14.4413C1.75781 11.2986 4.32797 8.74723 7.49473 8.80195C10.5512 8.85305 13.0379 11.4309 13.0379 14.5485V16.0903H12.9573C10.5165 16.0903 8.5309 18.0761 8.5309 20.5168V23.4687C8.5309 25.1149 9.87023 26.4543 11.5166 26.4543H27.8933C28.7148 26.4543 29.4598 26.1207 30 25.5822C30.5404 26.1207 31.2853 26.4543 32.1068 26.4543H48.4835C50.1299 26.4543 51.4692 25.1149 51.4692 23.4687V20.5168C51.4692 18.0761 49.4836 16.0903 47.0428 16.0903H46.9622V14.5485C46.9622 11.4308 49.4489 8.85293 52.5054 8.80195C55.646 8.74594 58.2422 11.2743 58.2422 14.4413C58.2422 16.6896 56.9086 18.7211 54.8447 19.6168C54.5235 19.7562 54.3156 20.0729 54.3156 20.4231C54.2802 26.6059 54.4009 26.6829 54.2005 27.4958C54.0642 28.049 54.483 28.5852 55.0546 28.5852C55.4495 28.5852 55.8086 28.3171 55.9072 27.9164C56.1874 26.7786 56.0265 26.4118 56.0734 20.9746C58.4767 19.6977 60 17.1934 60 14.4413C60 9.77778 55.7692 6.34406 51.2966 7.16274ZM44.2611 32.2685H48.9284V33.9295C48.9284 34.132 48.7636 34.2968 48.5611 34.2968H44.6285C44.4259 34.2968 44.2611 34.132 44.2611 33.9295V32.2685ZM11.0716 32.2685H15.7389V33.9295C15.7389 34.132 15.5741 34.2968 15.3715 34.2968H11.4388C11.2363 34.2968 11.0715 34.132 11.0715 33.9295V32.2685H11.0716ZM29.1211 23.4688C29.1211 24.1458 28.5703 24.6966 27.8933 24.6966H11.5165C10.8395 24.6966 10.2886 24.1458 10.2886 23.4688V20.517C10.2886 19.0454 11.4858 17.8482 12.9572 17.8482H26.4521C27.9238 17.8482 29.1209 19.0454 29.1209 20.517V23.4688H29.1211ZM47.0427 17.8482C48.5142 17.8482 49.7113 19.0454 49.7113 20.517V23.4688C49.7113 24.1458 49.1605 24.6966 48.4834 24.6966H32.1068C31.4298 24.6966 30.8789 24.1458 30.8789 23.4688V20.517C30.8789 19.0454 32.0761 17.8482 33.5476 17.8482H47.0427ZM30 10.71C31.0846 10.71 32.1161 10.2402 32.8298 9.42117C33.1488 9.0552 33.1106 8.50008 32.7446 8.1811C32.3784 7.86223 31.8236 7.90031 31.5046 8.26629C31.1246 8.70223 30.5762 8.95231 29.9999 8.95231C29.4236 8.95231 28.8751 8.70234 28.4952 8.26629C28.1761 7.90031 27.621 7.86235 27.2551 8.1811C26.8893 8.50008 26.8511 9.0552 27.1699 9.42117C27.8839 10.2402 28.9154 10.71 30 10.71Z" fill="black"/>
</svg>
