<svg width="120" height="58" viewBox="0 0 120 58" fill="none" xmlns="http://www.w3.org/2000/svg">
<g clip-path="url(#clip0)">
<path d="M7.894 34.14C6.89533 34.14 5.99467 33.9253 5.192 33.496C4.38933 33.0573 3.75933 32.4553 3.302 31.69C2.84467 30.9153 2.616 30.052 2.616 29.1C2.616 28.148 2.84467 27.2893 3.302 26.524C3.75933 25.7493 4.38933 25.1473 5.192 24.718C5.99467 24.2793 6.89533 24.06 7.894 24.06C8.89267 24.06 9.79333 24.2793 10.596 24.718C11.3987 25.1473 12.0287 25.7447 12.486 26.51C12.9433 27.2753 13.172 28.1387 13.172 29.1C13.172 30.0613 12.9433 30.9247 12.486 31.69C12.0287 32.4553 11.3987 33.0573 10.596 33.496C9.79333 33.9253 8.89267 34.14 7.894 34.14ZM7.894 32.544C8.54733 32.544 9.13533 32.3993 9.658 32.11C10.1807 31.8113 10.5913 31.4007 10.89 30.878C11.1887 30.346 11.338 29.7533 11.338 29.1C11.338 28.4467 11.1887 27.8587 10.89 27.336C10.5913 26.804 10.1807 26.3933 9.658 26.104C9.13533 25.8053 8.54733 25.656 7.894 25.656C7.24067 25.656 6.65267 25.8053 6.13 26.104C5.60733 26.3933 5.19667 26.804 4.898 27.336C4.59933 27.8587 4.45 28.4467 4.45 29.1C4.45 29.7533 4.59933 30.346 4.898 30.878C5.19667 31.4007 5.60733 31.8113 6.13 32.11C6.65267 32.3993 7.24067 32.544 7.894 32.544ZM19.0772 26.44C19.8052 26.44 20.4538 26.5987 21.0232 26.916C21.6018 27.2333 22.0545 27.6813 22.3812 28.26C22.7078 28.8387 22.8712 29.506 22.8712 30.262C22.8712 31.018 22.7078 31.69 22.3812 32.278C22.0545 32.8567 21.6018 33.3047 21.0232 33.622C20.4538 33.9393 19.8052 34.098 19.0772 34.098C18.5638 34.098 18.0925 34.0093 17.6632 33.832C17.2432 33.6547 16.8885 33.3887 16.5992 33.034V34H14.9332V23.612H16.6832V27.434C16.9818 27.1073 17.3318 26.86 17.7332 26.692C18.1438 26.524 18.5918 26.44 19.0772 26.44ZM18.8812 32.6C19.5252 32.6 20.0525 32.3853 20.4632 31.956C20.8832 31.5267 21.0932 30.962 21.0932 30.262C21.0932 29.562 20.8832 28.9973 20.4632 28.568C20.0525 28.1387 19.5252 27.924 18.8812 27.924C18.4612 27.924 18.0832 28.022 17.7472 28.218C17.4112 28.4047 17.1452 28.6753 16.9492 29.03C16.7532 29.3847 16.6552 29.7953 16.6552 30.262C16.6552 30.7287 16.7532 31.1393 16.9492 31.494C17.1452 31.8487 17.4112 32.124 17.7472 32.32C18.0832 32.5067 18.4612 32.6 18.8812 32.6ZM24.5308 26.524H26.2808V34H24.5308V26.524ZM25.4128 25.292C25.0955 25.292 24.8295 25.194 24.6148 24.998C24.4001 24.7927 24.2928 24.5407 24.2928 24.242C24.2928 23.9433 24.4001 23.696 24.6148 23.5C24.8295 23.2947 25.0955 23.192 25.4128 23.192C25.7301 23.192 25.9961 23.29 26.2108 23.486C26.4255 23.6727 26.5328 23.9107 26.5328 24.2C26.5328 24.508 26.4255 24.7693 26.2108 24.984C26.0055 25.1893 25.7395 25.292 25.4128 25.292ZM35.5777 26.524L32.3717 34H30.5657L27.3597 26.524H29.1797L31.5037 32.068L33.8977 26.524H35.5777ZM39.7234 30.794L38.4214 32.026V34H36.6714V23.612H38.4214V29.884L42.0474 26.524H44.1474L41.0254 29.66L44.4414 34H42.3134L39.7234 30.794ZM48.2911 26.44C49.3924 26.44 50.2324 26.706 50.8111 27.238C51.3991 27.7607 51.6931 28.554 51.6931 29.618V34H50.0411V33.09C49.8264 33.4167 49.5184 33.6687 49.1171 33.846C48.7251 34.014 48.2491 34.098 47.6891 34.098C47.1291 34.098 46.6391 34.0047 46.2191 33.818C45.7991 33.622 45.4724 33.356 45.2391 33.02C45.0151 32.6747 44.9031 32.2873 44.9031 31.858C44.9031 31.186 45.1504 30.6493 45.6451 30.248C46.1491 29.8373 46.9378 29.632 48.0111 29.632H49.9431V29.52C49.9431 28.9973 49.7844 28.596 49.4671 28.316C49.1591 28.036 48.6971 27.896 48.0811 27.896C47.6611 27.896 47.2458 27.9613 46.8351 28.092C46.4338 28.2227 46.0931 28.4047 45.8131 28.638L45.1271 27.364C45.5191 27.0653 45.9904 26.8367 46.5411 26.678C47.0918 26.5193 47.6751 26.44 48.2911 26.44ZM48.0531 32.824C48.4918 32.824 48.8791 32.726 49.2151 32.53C49.5604 32.3247 49.8031 32.0353 49.9431 31.662V30.794H48.1371C47.1291 30.794 46.6251 31.1253 46.6251 31.788C46.6251 32.1053 46.7511 32.3573 47.0031 32.544C47.2551 32.7307 47.6051 32.824 48.0531 32.824ZM7.852 51.14C6.86267 51.14 5.96667 50.9253 5.164 50.496C4.37067 50.0573 3.74533 49.4553 3.288 48.69C2.84 47.9247 2.616 47.0613 2.616 46.1C2.616 45.1387 2.84467 44.2753 3.302 43.51C3.75933 42.7447 4.38467 42.1473 5.178 41.718C5.98067 41.2793 6.87667 41.06 7.866 41.06C8.66867 41.06 9.40133 41.2 10.064 41.48C10.7267 41.76 11.2867 42.166 11.744 42.698L10.568 43.804C9.85867 43.0387 8.986 42.656 7.95 42.656C7.278 42.656 6.676 42.8053 6.144 43.104C5.612 43.3933 5.19667 43.7993 4.898 44.322C4.59933 44.8447 4.45 45.4373 4.45 46.1C4.45 46.7627 4.59933 47.3553 4.898 47.878C5.19667 48.4007 5.612 48.8113 6.144 49.11C6.676 49.3993 7.278 49.544 7.95 49.544C8.986 49.544 9.85867 49.1567 10.568 48.382L11.744 49.502C11.2867 50.034 10.722 50.44 10.05 50.72C9.38733 51 8.65467 51.14 7.852 51.14ZM16.4064 51.098C15.6504 51.098 14.9691 50.9347 14.3624 50.608C13.7558 50.2813 13.2798 49.8287 12.9344 49.25C12.5984 48.662 12.4304 47.9993 12.4304 47.262C12.4304 46.5247 12.5984 45.8667 12.9344 45.288C13.2798 44.7093 13.7558 44.2567 14.3624 43.93C14.9691 43.6033 15.6504 43.44 16.4064 43.44C17.1718 43.44 17.8578 43.6033 18.4644 43.93C19.0711 44.2567 19.5424 44.7093 19.8784 45.288C20.2238 45.8667 20.3964 46.5247 20.3964 47.262C20.3964 47.9993 20.2238 48.662 19.8784 49.25C19.5424 49.8287 19.0711 50.2813 18.4644 50.608C17.8578 50.9347 17.1718 51.098 16.4064 51.098ZM16.4064 49.6C17.0504 49.6 17.5824 49.3853 18.0024 48.956C18.4224 48.5267 18.6324 47.962 18.6324 47.262C18.6324 46.562 18.4224 45.9973 18.0024 45.568C17.5824 45.1387 17.0504 44.924 16.4064 44.924C15.7624 44.924 15.2304 45.1387 14.8104 45.568C14.3998 45.9973 14.1944 46.562 14.1944 47.262C14.1944 47.962 14.3998 48.5267 14.8104 48.956C15.2304 49.3853 15.7624 49.6 16.4064 49.6ZM31.5059 43.44C32.4485 43.44 33.1952 43.7153 33.7459 44.266C34.2965 44.8073 34.5719 45.624 34.5719 46.716V51H32.8219V46.94C32.8219 46.2867 32.6772 45.7967 32.3879 45.47C32.0985 45.134 31.6832 44.966 31.1419 44.966C30.5539 44.966 30.0825 45.162 29.7279 45.554C29.3732 45.9367 29.1959 46.4873 29.1959 47.206V51H27.4459V46.94C27.4459 46.2867 27.3012 45.7967 27.0119 45.47C26.7225 45.134 26.3072 44.966 25.7659 44.966C25.1685 44.966 24.6925 45.1573 24.3379 45.54C23.9925 45.9227 23.8199 46.478 23.8199 47.206V51H22.0699V43.524H23.7359V44.476C24.0159 44.14 24.3659 43.8833 24.7859 43.706C25.2059 43.5287 25.6725 43.44 26.1859 43.44C26.7459 43.44 27.2405 43.5473 27.6699 43.762C28.1085 43.9673 28.4539 44.2753 28.7059 44.686C29.0139 44.294 29.4105 43.9907 29.8959 43.776C30.3812 43.552 30.9179 43.44 31.5059 43.44ZM39.8462 41.928C39.1088 41.928 38.7402 42.3293 38.7402 43.132V43.58H40.7982V44.98H38.7962V51H37.0462V44.98H35.8142V43.58H37.0462V43.104C37.0462 42.3013 37.2795 41.6713 37.7462 41.214C38.2128 40.7473 38.8708 40.514 39.7202 40.514C40.3922 40.514 40.9195 40.6493 41.3022 40.92L40.8122 42.236C40.5135 42.0307 40.1915 41.928 39.8462 41.928ZM45.2268 51.098C44.4708 51.098 43.7894 50.9347 43.1828 50.608C42.5761 50.2813 42.1001 49.8287 41.7548 49.25C41.4188 48.662 41.2508 47.9993 41.2508 47.262C41.2508 46.5247 41.4188 45.8667 41.7548 45.288C42.1001 44.7093 42.5761 44.2567 43.1828 43.93C43.7894 43.6033 44.4708 43.44 45.2268 43.44C45.9921 43.44 46.6781 43.6033 47.2848 43.93C47.8914 44.2567 48.3628 44.7093 48.6988 45.288C49.0441 45.8667 49.2168 46.5247 49.2168 47.262C49.2168 47.9993 49.0441 48.662 48.6988 49.25C48.3628 49.8287 47.8914 50.2813 47.2848 50.608C46.6781 50.9347 45.9921 51.098 45.2268 51.098ZM45.2268 49.6C45.8708 49.6 46.4028 49.3853 46.8228 48.956C47.2428 48.5267 47.4528 47.962 47.4528 47.262C47.4528 46.562 47.2428 45.9973 46.8228 45.568C46.4028 45.1387 45.8708 44.924 45.2268 44.924C44.5828 44.924 44.0508 45.1387 43.6308 45.568C43.2201 45.9973 43.0148 46.562 43.0148 47.262C43.0148 47.962 43.2201 48.5267 43.6308 48.956C44.0508 49.3853 44.5828 49.6 45.2268 49.6ZM52.5562 44.616C53.0602 43.832 53.9469 43.44 55.2162 43.44V45.106C55.0669 45.078 54.9315 45.064 54.8102 45.064C54.1289 45.064 53.5969 45.2647 53.2142 45.666C52.8315 46.058 52.6402 46.6273 52.6402 47.374V51H50.8902V43.524H52.5562V44.616ZM61.4682 50.594C61.2628 50.762 61.0108 50.888 60.7122 50.972C60.4228 51.056 60.1148 51.098 59.7882 51.098C58.9668 51.098 58.3322 50.8833 57.8842 50.454C57.4362 50.0247 57.2122 49.3993 57.2122 48.578V44.98H55.9802V43.58H57.2122V41.872H58.9622V43.58H60.9642V44.98H58.9622V48.536C58.9622 48.9 59.0508 49.18 59.2282 49.376C59.4055 49.5627 59.6622 49.656 59.9982 49.656C60.3902 49.656 60.7168 49.5533 60.9782 49.348L61.4682 50.594Z" fill="#006AB9"/>
<path d="M85.1418 16.9294C84.8037 16.9294 84.5295 16.6554 84.5295 16.3172V1.6899C84.5295 1.3517 84.8037 1.07764 85.1418 1.07764C85.4799 1.07764 85.7541 1.3517 85.7541 1.6899V16.3172C85.754 16.6554 85.4799 16.9294 85.1418 16.9294Z" fill="#886A59"/>
<path d="M65.0858 40.9223H61.7757C61.4809 40.9223 61.2418 40.6833 61.2418 40.3884V38.1417H65.6196V40.3884C65.6197 40.6833 65.3806 40.9223 65.0858 40.9223Z" fill="#51586B"/>
<path d="M86.2242 40.9223H82.9142C82.6193 40.9223 82.3802 40.6833 82.3802 40.3884V38.1417H86.7581V40.3884C86.7581 40.6833 86.5191 40.9223 86.2242 40.9223Z" fill="#51586B"/>
<path d="M91.5627 32.1904L90.1105 36.4003L89.3088 38.7243H58.6909L58.0027 36.4003L55.8305 29.0623L87.8329 27.619L91.5627 32.1904Z" fill="#006AB9"/>
<path d="M91.5627 32.1904L90.1105 36.4003H58.0027L55.8305 29.0623L87.8329 27.619L91.5627 32.1904Z" fill="#0464A0"/>
<path d="M74 29.6227V18.6113C74 17.3456 72.9713 16.3169 71.7056 16.3169H60.9853C59.7129 16.3169 58.6909 17.3456 58.6909 18.6113V29.6227V30.9877H74V29.6227Z" fill="#006AB9"/>
<path d="M60.0515 18.6113C60.0515 17.3456 61.0734 16.317 62.3459 16.317H60.9853C59.7129 16.317 58.6909 17.3457 58.6909 18.6113V29.6227V30.9877H60.0515V29.6227V18.6113Z" fill="#0464A0"/>
<path d="M89.3091 29.6227V18.6113C89.3091 17.3456 88.2803 16.3169 87.0147 16.3169H76.2944C75.022 16.3169 74 17.3456 74 18.6113V29.6227V30.9877H89.3091V29.6227Z" fill="#006AB9"/>
<path d="M75.3605 18.6113C75.3605 17.3456 76.3825 16.317 77.6549 16.317H76.2944C75.022 16.317 74 17.3457 74 18.6113V29.6227V30.9877H75.3605V29.6227V18.6113Z" fill="#0464A0"/>
<path d="M92.0103 38.724H89.309V24.2795C89.309 23.6618 89.9457 23.2495 90.5093 23.5021L93.4965 24.8414C93.8288 24.9903 94.0295 25.3339 93.9963 25.6965L92.8734 37.9365C92.8326 38.3826 92.4584 38.724 92.0103 38.724Z" fill="#025589"/>
<path d="M55.9896 38.724H58.6909V24.2795C58.6909 23.6618 58.0542 23.2495 57.4906 23.5021L54.5034 24.8413C54.1712 24.9903 53.9704 25.3339 54.0036 25.6964L55.1266 37.9364C55.1674 38.3826 55.5416 38.724 55.9896 38.724Z" fill="#025589"/>
<path d="M89.1645 36.0442H58.8355C58.2537 36.0442 57.7821 35.5725 57.7821 34.9908V32.0413C57.7821 31.4595 58.2538 30.9879 58.8355 30.9879H89.1646C89.7463 30.9879 90.2179 31.4595 90.2179 32.0413V34.9908C90.218 35.5725 89.7463 36.0442 89.1645 36.0442Z" fill="#008CC9"/>
<path d="M60.0677 34.9907V32.0412C60.0677 31.4594 60.5394 30.9878 61.1211 30.9878H58.8354C58.2536 30.9878 57.782 31.4594 57.782 32.0412V34.9907C57.782 35.5725 58.2537 36.044 58.8354 36.044H61.1211C60.5394 36.044 60.0677 35.5725 60.0677 34.9907Z" fill="#0285B2"/>
<path d="M78.5275 21.3459C78.2553 21.3459 78.01 21.1596 77.9379 20.8972C77.8738 20.6635 77.9555 20.4024 78.1483 20.2531C78.5639 19.9311 79.1904 20.265 79.1368 20.7936C79.1053 21.1026 78.8391 21.3459 78.5275 21.3459Z" fill="#025589"/>
<path d="M84.7814 21.3458C84.5087 21.3458 84.2649 21.159 84.1919 20.8971C84.1267 20.6632 84.2106 20.4026 84.4027 20.253C84.8176 19.9295 85.4442 20.2662 85.3906 20.7935C85.3592 21.1026 85.0933 21.3458 84.7814 21.3458Z" fill="#025589"/>
<path d="M78.5276 27.184C77.9783 27.184 77.7083 26.477 78.1205 26.1139C78.5338 25.7498 79.2048 26.0979 79.1348 26.6463C79.0962 26.9482 78.8336 27.184 78.5276 27.184Z" fill="#025589"/>
<path d="M84.7814 27.184C84.2257 27.184 83.9627 26.4684 84.3818 26.108C84.797 25.7508 85.4582 26.1029 85.3887 26.6462C85.35 26.9487 85.0878 27.184 84.7814 27.184Z" fill="#025589"/>
<path d="M63.2188 21.3457C62.6569 21.3457 62.3958 20.6145 62.8306 20.2604C63.2339 19.932 63.8559 20.2431 63.8303 20.7634C63.8144 21.0853 63.5413 21.3457 63.2188 21.3457Z" fill="#025589"/>
<path d="M69.472 21.3457C69.1994 21.3457 68.9561 21.1588 68.8828 20.897C68.8173 20.6636 68.9023 20.4023 69.0934 20.2529C69.5081 19.9285 70.1357 20.2664 70.082 20.7934C70.0505 21.103 69.7834 21.3457 69.472 21.3457Z" fill="#025589"/>
<path d="M63.2182 27.1839C62.6895 27.1839 62.4132 26.5274 62.7767 26.1475C62.9564 25.9596 63.2455 25.9069 63.4802 26.0182C63.7118 26.1282 63.8518 26.376 63.8275 26.6312C63.7979 26.9401 63.5283 27.1839 63.2182 27.1839Z" fill="#025589"/>
<path d="M69.4728 27.1839C68.9171 27.1839 68.6528 26.4682 69.0727 26.1079C69.2793 25.9307 69.5857 25.911 69.8125 26.0622C70.0246 26.2038 70.129 26.4725 70.0661 26.72C69.998 26.9885 69.7503 27.1839 69.4728 27.1839Z" fill="#025589"/>
<path d="M92.1951 3.10455H78.0873V12.9413H92.1951V3.10455Z" fill="#006AB9"/>
<path d="M81.5763 3.10455H78.0873V12.9413H81.5763V3.10455Z" fill="#006AB9"/>
</g>
<defs>
<clipPath id="clip0">
<rect width="120" height="58" rx="16" fill="white"/>
</clipPath>
</defs>
</svg>
